<?xml version="1.0" encoding="UTF-8" standalone="no"?>
<!-- Created with Inkscape (http://www.inkscape.org/) -->

<svg
   xmlns:dc="http://purl.org/dc/elements/1.1/"
   xmlns:cc="http://creativecommons.org/ns#"
   xmlns:rdf="http://www.w3.org/1999/02/22-rdf-syntax-ns#"
   xmlns:svg="http://www.w3.org/2000/svg"
   xmlns="http://www.w3.org/2000/svg"
   xmlns:sodipodi="http://sodipodi.sourceforge.net/DTD/sodipodi-0.dtd"
   xmlns:inkscape="http://www.inkscape.org/namespaces/inkscape"
   width="744.09448819"
   height="1052.3622047"
   id="svg2"
   version="1.1"
   inkscape:version="0.48.4 r9939"
   sodipodi:docname="New document 1">
  <defs
     id="defs4" />
  <sodipodi:namedview
     id="base"
     pagecolor="#ffffff"
     bordercolor="#666666"
     borderopacity="1.0"
     inkscape:pageopacity="0.0"
     inkscape:pageshadow="2"
     inkscape:zoom="1.4"
     inkscape:cx="101.70863"
     inkscape:cy="683.46464"
     inkscape:document-units="px"
     inkscape:current-layer="layer1"
     showgrid="false"
     inkscape:snap-midpoints="false"
     inkscape:snap-smooth-nodes="true"
     inkscape:window-width="1600"
     inkscape:window-height="845"
     inkscape:window-x="0"
     inkscape:window-y="0"
     inkscape:window-maximized="1" />
  <metadata
     id="metadata7">
    <rdf:RDF>
      <cc:Work
         rdf:about="">
        <dc:format>image/svg+xml</dc:format>
        <dc:type
           rdf:resource="http://purl.org/dc/dcmitype/StillImage" />
        <dc:title></dc:title>
      </cc:Work>
    </rdf:RDF>
  </metadata>
  <g
     inkscape:label="Layer 1"
     inkscape:groupmode="layer"
     id="layer1">
    <rect
       style="fill:none"
       id="rect3007"
       width="428.80975"
       height="78.286819"
       x="273.75134"
       y="356.87216" />
    <rect
       style="fill:none"
       id="rect3009"
       width="351.02802"
       height="66.670067"
       x="276.7818"
       y="336.16403" />
    <rect
       style="fill:none"
       id="rect3011"
       width="608.11182"
       height="111.62186"
       x="256.57874"
       y="373.53967" />
    <path
       style="fill:none;stroke:#000000;stroke-width:0.80257815px;stroke-linecap:butt;stroke-linejoin:miter;stroke-opacity:1"
       d="m 245.41842,595.31803 c 0,0 9.0884,-18.5276 -52.50162,-81.84478 -61.93879,-63.67572 -59.96515,-94.64594 -59.73994,-123.27872 0.29053,-36.93671 44.82182,-118.16526 106.05953,-119.90096 54.12684,-1.53415 115.70215,75.80676 115.56646,119.60555 -3.65588,90.09688 -68.26674,132.12215 -109.38443,205.41891 z"
       id="path3033"
       inkscape:connector-curvature="0"
       sodipodi:nodetypes="cssscc" />
    <path
       style="fill:#000000;fill-opacity:1;stroke:#8e2bc8;stroke-width:1.01015257999999997;stroke-opacity:0"
       d="m 245.72939,585.65803 c -2.51901,-10.00388 -12.24658,-26.43625 -25.17331,-42.52422 -3.57131,-4.44468 -15.05649,-17.39988 -25.52263,-28.78935 -27.12914,-29.5225 -37.48577,-42.82514 -47.29539,-60.74889 -9.65145,-17.63477 -13.25546,-32.98302 -13.25546,-56.45054 0,-12.60468 0.38713,-16.39937 2.5044,-24.54828 6.45464,-24.84255 24.39615,-55.2644 42.87105,-72.69268 27.07014,-25.53661 55.12592,-33.99116 82.29269,-24.79876 34.25372,11.59041 73.18311,52.5295 86.84151,91.32463 4.28111,12.15998 5.02762,17.10383 4.32628,28.65116 -1.42886,23.52593 -7.40875,45.19186 -18.69805,67.74558 -9.15091,18.28165 -15.88811,28.34522 -43.9394,65.63377 -21.73515,28.89251 -35.83609,48.81058 -42.63706,60.22635 -0.93408,1.56788 -1.26682,1.13248 -2.31463,-3.02877 l 0,0 z"
       id="path3861"
       inkscape:connector-curvature="0" />
    <path
       style="fill:#000000;fill-opacity:1;stroke:#8e2bc8;stroke-width:1.01015258;stroke-opacity:0"
       d="m 244.3519,580.69033 c -6.07309,-16.20849 -15.91343,-29.7193 -47.28803,-64.9266 -32.86242,-36.87686 -40.72861,-47.19026 -50.39186,-66.06904 -9.16187,-17.89924 -11.67386,-30.84264 -10.97854,-56.56854 0.43268,-16.00865 0.59942,-17.10676 4.21809,-27.77919 12.77589,-37.67957 40.29978,-71.37838 69.82741,-85.49304 11.20765,-5.35743 19.38443,-7.30085 30.80965,-7.3227 11.32471,-0.0217 17.99133,1.41892 28.252,6.10496 36.23458,16.54829 72.74843,59.69693 82.49165,97.4809 3.20146,12.41517 -0.19965,42.43743 -7.01931,61.96086 -8.91853,25.53212 -18.68458,42.20924 -47.619,81.31728 -26.29372,35.53882 -34.30546,46.62056 -41.81012,57.83123 -3.99814,5.97253 -7.37282,10.85421 -7.49929,10.84819 -0.12646,-0.006 -1.47315,-3.32895 -2.99265,-7.38431 l 0,0 z"
       id="path3863"
       inkscape:connector-curvature="0" />
    <path
       style="fill:#000000;fill-opacity:1;stroke:#8e2bc8;stroke-width:1.01015258;stroke-opacity:0"
       d="m 246.5972,586.8229 c -0.0239,-2.44917 -6.95509,-17.12643 -11.23942,-23.80028 -7.74304,-12.06162 -15.37225,-21.47012 -38.24372,-47.16293 -32.92026,-36.9812 -40.78355,-47.2955 -50.44205,-66.165 -9.16187,-17.89924 -11.67386,-30.84264 -10.97854,-56.56854 0.43268,-16.00865 0.59942,-17.10676 4.21809,-27.77919 10.18389,-30.03506 32.26499,-61.00426 54.67512,-76.68298 8.79485,-6.15312 21.17767,-12.13424 29.7995,-14.39371 7.96425,-2.08713 23.52801,-2.29508 31.31473,-0.41839 32.7205,7.886 75.28121,49.17038 90.84746,88.12307 5.56085,13.91537 6.46551,19.1154 5.77091,33.17151 -1.14269,23.12393 -6.70623,43.41692 -18.4521,67.30393 -8.15427,16.58293 -14.96496,26.77748 -46.53409,69.65441 -13.87461,18.84438 -28.49627,39.14913 -32.49258,45.12165 -3.9963,5.97253 -7.48313,10.85914 -7.7485,10.85914 -0.26535,0 -0.48802,-0.56821 -0.49481,-1.26269 l 0,0 z"
       id="path3865"
       inkscape:connector-curvature="0" />
    <path
       style="fill:#000000;fill-opacity:1;stroke:#8e2bc8;stroke-width:1.01015258;stroke-opacity:0"
       d="m 244.33904,580.65638 c -2.96886,-7.92315 -11.0925,-21.5851 -18.70764,-31.46166 -2.57024,-3.3335 -12.42504,-14.85751 -21.89955,-25.60892 -35.78908,-40.61241 -43.28127,-49.85933 -51.27534,-63.2845 -13.99492,-23.50292 -17.55754,-37.77955 -16.76304,-67.17515 0.43268,-16.00865 0.59942,-17.10676 4.21809,-27.77919 10.18389,-30.03506 32.26499,-61.00426 54.67512,-76.68298 8.79485,-6.15312 21.17767,-12.13424 29.7995,-14.39371 7.96425,-2.08713 23.52801,-2.29508 31.31473,-0.41839 34.24111,8.25248 77.25194,51.23264 92.71547,92.64934 3.66228,9.80886 3.71735,10.17593 3.69134,24.60463 -0.0424,23.5234 -5.2795,44.68719 -17.12277,69.19545 -9.19756,19.03327 -13.38198,25.3086 -50.51818,75.76144 -11.04142,15.00076 -23.87896,32.84258 -28.52785,39.64848 -4.64889,6.80591 -8.53618,12.36944 -8.63842,12.36342 -0.10224,-0.006 -1.4349,-3.34424 -2.96146,-7.41826 l 0,0 z"
       id="path3867"
       inkscape:connector-curvature="0" />
    <path
       style="fill:#000000;fill-opacity:1;stroke:#8e2bc8;stroke-width:1.01015258;stroke-opacity:0"
       d="m 244.77175,581.82154 c -5.40512,-15.31066 -16.4683,-30.55515 -48.23619,-66.46693 -32.62758,-36.88361 -40.31676,-47.00866 -49.86355,-65.65992 -9.16187,-17.89924 -11.67386,-30.84264 -10.97854,-56.56854 0.43268,-16.00865 0.59942,-17.10676 4.21809,-27.77919 7.60022,-22.41514 22.6616,-46.94755 38.4506,-62.62946 10.94578,-10.87155 19.83646,-17.37255 31.10506,-22.74451 11.49466,-5.47972 19.59765,-7.41981 31.0814,-7.44177 12.29822,-0.0235 18.30741,1.43794 31.00687,7.54106 31.2756,15.03043 63.90059,51.71676 76.86089,86.42894 3.66228,9.80886 3.71735,10.17593 3.69134,24.60463 -0.0437,24.25365 -5.3304,45.0172 -18.13247,71.21575 -7.50817,15.36497 -17.71317,30.71297 -45.44438,68.34692 -11.11168,15.07963 -24.19937,33.14463 -29.08376,40.14444 -4.88439,6.99983 -9.66596,13.80917 -10.6257,15.13189 l -1.74499,2.40494 -2.30467,-6.52825 0,0 z"
       id="path3869"
       inkscape:connector-curvature="0" />
    <path
       style="fill:#8e2bc8;fill-opacity:0;stroke:#8e2bc8;stroke-width:1.01015257999999997;stroke-opacity:0"
       d="m 244.69801,581.77214 c -5.95021,-15.61165 -15.6046,-29.19268 -42.65265,-60.00043 -28.61397,-32.59132 -33.15298,-37.97461 -40.75748,-48.33843 -8.08518,-11.01893 -17.53421,-28.04518 -20.74772,-37.38541 -3.91502,-11.37921 -5.30722,-23.5284 -4.84103,-42.24602 0.4193,-16.83514 0.54251,-17.66874 4.20599,-28.45489 7.62123,-22.43873 22.6747,-46.95416 38.45704,-62.62946 10.94578,-10.87155 19.83646,-17.37255 31.10506,-22.74451 11.49466,-5.47972 19.59765,-7.41981 31.0814,-7.44177 12.29822,-0.0235 18.30741,1.43794 31.00687,7.54106 31.27122,15.02833 63.8705,51.68243 76.86782,86.42894 3.70225,9.89741 3.72431,10.04872 3.65918,25.1097 -0.16794,38.84313 -13.90607,71.85822 -50.44101,121.21831 -18.02432,24.35156 -38.64925,52.80316 -46.31624,63.89215 -4.32149,6.25032 -7.93909,11.36421 -8.03909,11.36421 -0.10001,0 -1.26467,-2.84105 -2.58814,-6.31345 l 0,0 z"
       id="path3871"
       inkscape:connector-curvature="0" />
    <path
       style="fill:#8e2bc8;fill-opacity:0;stroke:#8e2bc8;stroke-width:1.01015258;stroke-opacity:0"
       d="m 244.69801,581.77214 c -5.95021,-15.61165 -15.6046,-29.19268 -42.65265,-60.00043 -28.61397,-32.59132 -33.15298,-37.97461 -40.75748,-48.33843 -8.08518,-11.01893 -17.53421,-28.04518 -20.74772,-37.38541 -3.91502,-11.37921 -5.30722,-23.5284 -4.84103,-42.24602 0.4193,-16.83514 0.54251,-17.66874 4.20599,-28.45489 7.62123,-22.43873 22.6747,-46.95416 38.45704,-62.62946 10.94578,-10.87155 19.83646,-17.37255 31.10506,-22.74451 11.49466,-5.47972 19.59765,-7.41981 31.0814,-7.44177 12.29822,-0.0235 18.30741,1.43794 31.00687,7.54106 31.27122,15.02833 63.8705,51.68243 76.86782,86.42894 3.70225,9.89741 3.72431,10.04872 3.65918,25.1097 -0.16794,38.84313 -13.90607,71.85822 -50.44101,121.21831 -18.02432,24.35156 -38.64925,52.80316 -46.31624,63.89215 -4.32149,6.25032 -7.93909,11.36421 -8.03909,11.36421 -0.10001,0 -1.26467,-2.84105 -2.58814,-6.31345 l 0,0 z"
       id="path3873"
       inkscape:connector-curvature="0" />
    <path
       style="fill:#8e2bc8;fill-opacity:0;stroke:#8e2bc8;stroke-width:1.01015258;stroke-opacity:0"
       d="m 244.69801,581.77214 c -5.95021,-15.61165 -15.6046,-29.19268 -42.65265,-60.00043 -28.61397,-32.59132 -33.15298,-37.97461 -40.75748,-48.33843 -8.08518,-11.01893 -17.53421,-28.04518 -20.74772,-37.38541 -3.91502,-11.37921 -5.30722,-23.5284 -4.84103,-42.24602 0.4193,-16.83514 0.54251,-17.66874 4.20599,-28.45489 7.62123,-22.43873 22.6747,-46.95416 38.45704,-62.62946 10.94578,-10.87155 19.83646,-17.37255 31.10506,-22.74451 11.49466,-5.47972 19.59765,-7.41981 31.0814,-7.44177 12.29822,-0.0235 18.30741,1.43794 31.00687,7.54106 31.27122,15.02833 63.8705,51.68243 76.86782,86.42894 3.70225,9.89741 3.72431,10.04872 3.65918,25.1097 -0.16794,38.84313 -13.90607,71.85822 -50.44101,121.21831 -18.02432,24.35156 -38.64925,52.80316 -46.31624,63.89215 -4.32149,6.25032 -7.93909,11.36421 -8.03909,11.36421 -0.10001,0 -1.26467,-2.84105 -2.58814,-6.31345 l 0,0 z"
       id="path3875"
       inkscape:connector-curvature="0" />
    <path
       style="fill:#8e2bc8;fill-opacity:1;stroke:#8f2bc8;stroke-width:1.01015257999999997;stroke-opacity:1;"
       d="m 244.69801,581.77214 c -5.95021,-15.61165 -15.6046,-29.19268 -42.65265,-60.00043 -28.61397,-32.59132 -33.15298,-37.97461 -40.75748,-48.33843 -8.08518,-11.01893 -17.53421,-28.04518 -20.74772,-37.38541 -3.91502,-11.37921 -5.30722,-23.5284 -4.84103,-42.24602 0.4193,-16.83514 0.54251,-17.66874 4.20599,-28.45489 7.62123,-22.43873 22.6747,-46.95416 38.45704,-62.62946 10.94578,-10.87155 19.83646,-17.37255 31.10506,-22.74451 11.49466,-5.47972 19.59765,-7.41981 31.0814,-7.44177 12.29822,-0.0235 18.30741,1.43794 31.00687,7.54106 31.27122,15.02833 63.8705,51.68243 76.86782,86.42894 3.70225,9.89741 3.72431,10.04872 3.65918,25.1097 -0.16794,38.84313 -13.90607,71.85822 -50.44101,121.21831 -18.02432,24.35156 -38.64925,52.80316 -46.31624,63.89215 -4.32149,6.25032 -7.93909,11.36421 -8.03909,11.36421 -0.10001,0 -1.26467,-2.84105 -2.58814,-6.31345 l 0,0 z"
       id="path3877"
       inkscape:connector-curvature="0" />
    <path
       style="fill:#8e2bc8;fill-opacity:1;stroke:#000000;stroke-width:1.01015257999999997;stroke-opacity:1"
       d="m 244.17582,579.44691 c -5.38369,-12.35793 -14.70741,-26.28757 -28.36277,-42.37402 -2.82972,-3.3335 -13.80173,-16.06143 -24.38223,-28.28427 -23.89057,-27.59896 -33.71424,-40.49094 -41.05213,-53.87426 -11.74895,-21.42854 -13.95197,-30.44434 -13.96206,-57.13951 -0.008,-20.17833 0.64435,-23.96751 6.75137,-39.2379 7.96767,-19.92285 21.70038,-41.09231 35.93097,-55.38885 13.67739,-13.74078 28.66117,-23.27739 43.77198,-27.85924 8.55809,-2.59496 28.14576,-2.58685 35.86042,0.0148 19.70845,6.64648 44.11613,24.63989 60.93587,44.92208 13.72466,16.54997 26.32483,38.49352 30.54928,53.2024 3.50361,12.19905 0.38685,44.07322 -6.25867,64.00548 -4.24468,12.73129 -16.86629,37.07788 -27.37004,52.79571 -10.66298,15.95611 -68.11908,95.72976 -68.99588,95.7958 -0.29306,0.022 -1.83031,-2.93815 -3.41611,-6.57826 l 0,0 z"
       id="path3887"
       inkscape:connector-curvature="0" />
  </g>
</svg>
