<?xml version="1.0" encoding="UTF-8" standalone="no"?>
<svg
   xmlns:dc="http://purl.org/dc/elements/1.1/"
   xmlns:cc="http://creativecommons.org/ns#"
   xmlns:rdf="http://www.w3.org/1999/02/22-rdf-syntax-ns#"
   xmlns:svg="http://www.w3.org/2000/svg"
   xmlns="http://www.w3.org/2000/svg"
   viewBox="0 0 235 235"
   height="235"
   width="235"
   version="1.1"
   id="svg4155">
  <metadata
     id="metadata4161">
    <rdf:RDF>
      <cc:Work
         rdf:about="">
        <dc:format>image/svg+xml</dc:format>
        <dc:type
           rdf:resource="http://purl.org/dc/dcmitype/StillImage" />
        <dc:title></dc:title>
      </cc:Work>
    </rdf:RDF>
  </metadata>
  <defs
     id="defs4159" />
  <g
     id="layer1">
    <path
       id="path6420"
       d="m 59.474191,94.687981 c 0.356465,0.891163 -0.04455,0.136497 0.45262,0.633668 0.07693,0.07693 0.120698,0.181047 0.181047,0.271571 0.06035,0.09052 0.125073,0.17828 0.181048,0.271572 0.03471,0.05786 0.0531,0.124907 0.09052,0.181048 0.124362,0.186543 0.178066,-0.006 0.271572,0.181047 0.01349,0.02699 -0.02134,0.06919 0,0.09052 0.02134,0.02134 0.0619,-0.0095 0.09052,0 0.128021,0.04267 0.234076,0.138375 0.362096,0.181048 0.02863,0.0095 0.06035,0 0.09052,0 0.06035,0.03017 0.117038,0.06919 0.181048,0.09052 0.05725,0.01908 0.123795,-0.01908 0.181047,0 0.128021,0.04267 0.23118,0.148319 0.362096,0.181048 0.05855,0.01464 0.1225,-0.01464 0.181048,0 0.189419,0.04735 0.172676,0.133693 0.362095,0.181047 0.117095,0.02927 0.245001,-0.02927 0.362096,0 0.482794,0.120699 -0.09052,0.03017 0.271571,0.271572 0.05021,0.03348 0.121871,-0.01184 0.181048,0 0.09357,0.01871 0.179,0.06738 0.271572,0.09052 0.02927,0.0073 0.06353,-0.0135 0.09052,0 0.03817,0.01908 0.05236,0.07144 0.09052,0.09052 0.04951,0.02475 0.209966,-0.0154 0.271571,0 0.09257,0.02314 0.179,0.06738 0.271572,0.09052 0.02927,0.0073 0.06035,0 0.09052,0 0.06035,0 0.1225,-0.01464 0.181048,0 0.06546,0.01636 0.115589,0.07416 0.181047,0.09052 0.05855,0.01464 0.122501,-0.01464 0.181048,0 0.06546,0.01636 0.11559,0.07416 0.181048,0.09052 0.117095,0.02927 0.245001,-0.02927 0.362095,0 0.06546,0.01636 0.11559,0.07416 0.181048,0.09052 0.05855,0.01464 0.120699,0 0.181048,0 0.06035,0 0.120698,0 0.181048,0 0.09052,0 0.181047,0 0.271571,0 0.09052,0 0.184531,-0.02487 0.271572,0 0.129753,0.03707 0.234075,0.138375 0.362096,0.181048 0.54947,0.183157 0.348858,0.0287 0.905238,0.09052 0.123653,0.01374 0.238933,0.07293 0.362096,0.09052 0.08961,0.0128 0.182279,-0.01488 0.271572,0 0.600395,0.100066 0.08122,0.09052 0.362095,0.09052 0.09052,0 0.181048,0 0.271572,0 0.09052,0 0.182805,-0.01775 0.271571,0 0.06616,0.01323 0.11559,0.07416 0.181048,0.09052 0.05855,0.01464 0.120699,0 0.181048,0 0.06035,0 0.120698,0 0.181048,0 0.271571,0 0.543143,0 0.814715,0 0.301746,0 0.603492,0 0.905238,0 0.02526,0 0.562142,0 0.271572,0 0.06036,-0.120683 0.161982,-0.228471 0.181071,-0.362049 0.0135,-0.09446 -0.06431,-0.179822 -0.09052,-0.271571 -0.03418,-0.119627 -0.05118,-0.244067 -0.09052,-0.362096 -0.02134,-0.06401 -0.07729,-0.114886 -0.09052,-0.181048 -0.01775,-0.08877 0.01775,-0.182805 0,-0.271571 -0.01323,-0.06616 -0.07416,-0.11559 -0.09052,-0.181048 -0.0284,-0.113599 0.0284,-0.248497 0,-0.362096 -0.02314,-0.09257 -0.07181,-0.178004 -0.09052,-0.271571 -0.01184,-0.05918 0.01464,-0.122501 0,-0.181048 -0.109283,-0.437135 -0.04302,0.0045 -0.181047,-0.271572 -0.0135,-0.02699 0.01349,-0.06354 0,-0.09052 -0.01908,-0.03817 -0.07144,-0.05236 -0.09052,-0.09052 -0.01349,-0.02699 0,-0.06035 0,-0.09052 0,-0.03017 0,-0.06035 0,-0.09052 0,-0.150873 0,-0.301747 0,-0.45262 0,-0.181048 0,-0.362095 0,-0.543143 0,-0.03017 -0.02134,-0.06919 0,-0.09052 0.02134,-0.02134 0.06919,0.02134 0.09052,0 0.02134,-0.02134 -0.0135,-0.06353 0,-0.09052 0.03817,-0.07634 0.142879,-0.104711 0.181047,-0.181048 0.01349,-0.02699 -0.02134,-0.06919 0,-0.09052 0.02134,-0.02134 0.06919,0.02134 0.09052,0 0.02134,-0.02134 0,-0.06035 0,-0.09052 0.03017,0 0.06919,0.02134 0.09052,0 0.02134,-0.02134 -0.02134,-0.06919 0,-0.09052 0.187297,-0.187297 -0.0073,0.286215 0.181048,-0.09052 0.01349,-0.02699 -0.02134,-0.06919 0,-0.09052 0.0893,-0.0893 0.181048,0.18549 0.181048,-0.09052"
       style="fill:none;fill-rule:evenodd;stroke:#000000;stroke-width:1px;stroke-linecap:butt;stroke-linejoin:miter;stroke-opacity:1" />
    <path
       id="path6422"
       d="m 72.057011,97.946841 c 0.03017,0.150873 -0.0018,0.329531 0.09052,0.45262 0.105568,0.140757 0.310325,0.168084 0.452619,0.271571 0.190596,0.138615 0.359115,0.305397 0.543143,0.45262 0.117813,0.09425 0.248552,0.172221 0.362096,0.271571 0.871629,0.871627 -0.05566,-0.0083 0.633667,0.543144 0.142134,0.113703 0.32264,0.322643 0.45262,0.452623 0.03017,0.0302 0.05236,0.0714 0.09052,0.0905 0.05398,0.027 0.181048,-0.0603 0.181048,0 0,0.0302 -0.120698,0 -0.09052,0 0.254068,0 0.484596,-0.0293 0.724191,0.0905 0.07634,0.0382 0.115483,0.12641 0.181048,0.18105 0.115904,0.0966 0.236562,0.18788 0.362096,0.27157 0.237292,0.1582 0.158194,0.0338 0.452619,0.18105 0.22998,0.11499 -0.09271,0.10819 0.271572,0.18105 0.08877,0.0177 0.190604,-0.0405 0.271571,0 0.03675,0.0735 0.08889,0.22549 0.181048,0.27157 0.0966,0.0483 0.08444,-0.0483 0.181048,0 0.03817,0.0191 0.05236,0.0714 0.09052,0.0905 0.04981,0.0249 0.472372,-0.0236 0.543143,0 0.04048,0.0135 0.05004,0.077 0.09052,0.0905 0.0414,0.0138 0.321814,-0.0201 0.362096,0 0.03817,0.0191 0.05004,0.077 0.09052,0.0905 0.09619,0.0321 0.265904,-0.0321 0.362096,0 0.06401,0.0213 0.117038,0.0692 0.181048,0.0905 0.02863,0.01 0.06035,0 0.09052,0 0.01644,0 0.59664,-0.0123 0.633667,0 0.04048,0.0135 0.05235,0.0714 0.09052,0.0905 0.02699,0.0135 0.06035,0 0.09052,0 0.03017,0 0.06035,0 0.09052,0 4.5e-5,-1.10993 0.170679,-0.40117 -0.362066,-1.08613 -0.108021,-0.13888 -0.166004,-0.31186 -0.271572,-0.45262 -0.191777,-0.2557 -0.388922,-0.33919 -0.633667,-0.54314 -0.537491,-0.447908 0.222604,0.13208 -0.362095,-0.452619 -0.04771,-0.04771 -0.124908,-0.0531 -0.181048,-0.09052 -0.07811,-0.05208 -0.200865,-0.200865 -0.271572,-0.271571 -0.03017,-0.03017 -0.06035,-0.06035 -0.09052,-0.09052 -0.03017,-0.03018 -0.07144,-0.05236 -0.09052,-0.09052 -0.02014,-0.04028 0.0138,-0.320691 0,-0.362096 -0.01349,-0.04048 -0.07703,-0.05004 -0.09052,-0.09052 -0.04526,-0.135785 0.04526,-0.316833 0,-0.452619 -0.01349,-0.04048 -0.07144,-0.05236 -0.09052,-0.09052 -0.0165,-0.03299 0,-0.40046 0,-0.452619 0,-0.362096 0,-0.724191 0,-1.086287 0,-0.482794 0,-0.965588 0,-1.448382 0,-0.150873 0,-0.301746 0,-0.45262 0,-0.03017 0,-0.06035 0,-0.09052 0,-0.03017 0.01349,-0.06354 0,-0.09052 -0.01909,-0.03817 -0.07144,-0.05236 -0.09052,-0.09052 -0.05694,-0.113871 0.13001,-0.181048 -0.09052,-0.181048 0.18104,0.03016 0.366644,0.04008 0.54312,0.09049 0.06138,0.01754 0.279789,0.320942 0.362096,0.362095 0.02699,0.01349 0.06919,-0.02134 0.09052,0 0.02134,0.02134 -0.02134,0.06919 0,0.09052 0.02134,0.02134 0.06353,-0.01349 0.09052,0 0.03817,0.01908 0.05236,0.07144 0.09052,0.09052 0.02699,0.0135 0.06354,-0.01349 0.09052,0 0.03817,0.01908 0.05502,0.06685 0.09052,0.09052 0.05614,0.03743 0.120699,0.06035 0.181048,0.09052 0.06035,0.03017 0.11559,0.07416 0.181048,0.09052 0.05855,0.01464 0.1225,-0.01464 0.181047,0 0.135493,0.03387 0.355272,0.222897 0.45262,0.271572 0.08535,0.04267 0.182976,0.05509 0.271571,0.09052 0.06265,0.02506 0.120699,0.06035 0.181048,0.09052 0.06035,0.03017 0.12707,0.05004 0.181048,0.09052 0.102416,0.07681 0.165052,0.200559 0.271572,0.271572 0.112281,0.07485 0.241397,0.120698 0.362095,0.181048 0.424589,0.212294 -0.106683,-0.04267 0.45262,0.181047 0.06265,0.02506 0.115589,0.07416 0.181047,0.09052 0.05855,0.01464 0.120699,0 0.181048,0 0.06035,0.03017 0.117038,0.06919 0.181048,0.09052 0.02863,0.0095 0.06919,-0.02134 0.09052,0 0.04771,0.04771 0.04281,0.133338 0.09052,0.181048 0.02134,0.02134 0.06354,-0.01349 0.09052,0 0.108628,0.05431 0.162943,0.217257 0.271571,0.271572 0.02699,0.01349 0.06354,-0.0135 0.09052,0 0.03817,0.01908 0.05236,0.07144 0.09052,0.09052 0.02699,0.0135 0.06354,-0.01349 0.09052,0 0.03817,0.01909 0.05236,0.07144 0.09052,0.09052 0.05785,0.02892 0.289233,-0.02429 0.362095,0 0.06401,0.02134 0.117038,0.06919 0.181048,0.09052 0.02863,0.0095 0.06354,-0.01349 0.09052,0 0.03817,0.01908 0.06035,0.06035 0.09052,0.09052"
       style="fill:none;fill-rule:evenodd;stroke:#000000;stroke-width:1px;stroke-linecap:butt;stroke-linejoin:miter;stroke-opacity:1" />
    <path
       id="path6426"
       d="m 78.212635,98.037365 c 0.814715,0 1.62943,0 2.444145,0 0.05676,0 0.452725,0.01808 0.543143,0 0.121997,-0.0244 0.240645,-0.06353 0.362096,-0.09052 0.150197,-0.03338 0.302173,-0.05829 0.452619,-0.09052 0.272021,-0.05829 0.539923,-0.137659 0.814715,-0.181047 0.697084,-0.110066 1.381289,-0.09052 2.082049,-0.09052 0.362096,0 0.724191,0 1.086287,0 0.120698,0 0.241397,0 0.362095,0 0.06035,0 0.121871,-0.01184 0.181048,0 0.09357,0.01871 0.178004,0.07181 0.271572,0.09052 0.05918,0.01184 0.1225,-0.01464 0.181048,0 0.416073,0.104018 0.02054,0.09052 0.271571,0.09052 0.03017,0 0.06094,0.0059 0.09052,0 0.74644,-0.149288 -0.05501,-0.01915 0.905239,-0.362095 0.356199,-0.127214 0.970913,-0.236395 1.357858,-0.271572 0.240406,-0.02186 0.482794,0 0.724191,0 0.543144,0 1.086287,0 1.62943,0 0.02196,0 0.268661,0.0029 0.271572,0 0.02134,-0.02134 -0.02134,-0.06919 0,-0.09052 0.02134,-0.02134 0.06354,0.0135 0.09052,0 0.07634,-0.03817 0.104711,-0.142879 0.181047,-0.181047 0.02699,-0.0135 0.06354,0.01349 0.09052,0 0.03817,-0.01909 0.06035,-0.06035 0.09052,-0.09052 0.03017,-0.03017 0.06685,-0.05502 0.09052,-0.09052 0.03743,-0.05614 0.04281,-0.133338 0.09052,-0.181048 0.02134,-0.02134 0.06125,0.0073 0.09052,0 0.09257,-0.02314 0.186225,-0.04785 0.271571,-0.09052 0.03817,-0.01908 0.05236,-0.07144 0.09052,-0.09052 0.02699,-0.01349 0.06354,0.01349 0.09052,0 0.03817,-0.01908 0.05236,-0.07144 0.09052,-0.09052 0.02699,-0.01349 0.06354,0.01349 0.09052,0 0.03817,-0.01908 0.05236,-0.07144 0.09052,-0.09052 0.08535,-0.04267 0.192177,-0.03759 0.271572,-0.09052 0.02511,-0.01674 -0.02134,-0.06919 0,-0.09052 0.187297,-0.187297 -0.0073,0.286215 0.181047,-0.09052 0.08012,-0.160247 -0.134648,-0.03093 0.09052,-0.181048 0.05614,-0.03743 0.133338,-0.04281 0.181048,-0.09052 0.02134,-0.02134 -0.02134,-0.06919 0,-0.09052 0.02134,-0.02134 0.06354,0.0135 0.09052,0 0.03817,-0.01908 0.06035,-0.06035 0.09052,-0.09052 0.06035,-0.06035 0.129839,-0.11277 0.181047,-0.181047 0.04048,-0.05398 0.0531,-0.124908 0.09052,-0.181048 0.07101,-0.106519 0.19476,-0.169156 0.271572,-0.271572 0.04048,-0.05398 0.0531,-0.124907 0.09052,-0.181048 0.02367,-0.03551 0.07703,-0.05004 0.09052,-0.09052 0.01908,-0.05725 -0.02699,-0.12707 0,-0.181048 0.03817,-0.07634 0.133706,-0.110035 0.181048,-0.181048 0.03347,-0.05021 -0.04267,-0.138374 0,-0.181048 0.02134,-0.02134 0.06919,0.02134 0.09052,0 0.04267,-0.04267 -0.02699,-0.127069 0,-0.181047 0.207147,-0.414293 -0.03752,0.38413 0.181048,-0.271572 0.0095,-0.02863 -0.02134,-0.06919 0,-0.09052 0.02134,-0.02134 0.06919,0.02134 0.09052,0 0.04267,-0.04267 -0.04267,-0.138374 0,-0.181048 0.02134,-0.02134 0.06919,0.02134 0.09052,0 0.02134,-0.02134 -0.01349,-0.06354 0,-0.09052 0.03817,-0.07634 0.160348,-0.09825 0.181048,-0.181047 0.02196,-0.08782 -0.04657,-0.193948 0,-0.271572 0.05598,-0.09329 0.194641,-0.104117 0.271571,-0.181048 0.04771,-0.04771 0.0531,-0.124907 0.09052,-0.181048 0.02367,-0.03551 0.07144,-0.05236 0.09052,-0.09052 0.0135,-0.02699 -0.01349,-0.06354 0,-0.09052 0.03817,-0.07634 0.14288,-0.104712 0.181048,-0.181048 0.02699,-0.05398 -0.01908,-0.123796 0,-0.181048 0.02134,-0.06401 0.0531,-0.124907 0.09052,-0.181048 0.02367,-0.03551 0.07703,-0.05004 0.09052,-0.09052 0.01908,-0.05725 -0.01908,-0.123795 0,-0.181047 0.01349,-0.04048 0.07703,-0.05004 0.09052,-0.09052 0.02053,-0.06158 -0.024,-0.40462 0,-0.45262 0.01908,-0.03817 0.07703,-0.05004 0.09052,-0.09052 0.01909,-0.05725 0,-0.120699 0,-0.181048 0,-0.03017 -0.01349,-0.06354 0,-0.09052 0.01909,-0.03817 0.07144,-0.05236 0.09052,-0.09052 0.01349,-0.02699 -0.0095,-0.0619 0,-0.09052 0.258913,-0.776738 -0.08108,0.576999 0.09052,-0.452619 0.03137,-0.188245 0.143621,-0.356009 0.181048,-0.543144 0.01184,-0.05918 -0.01908,-0.123795 0,-0.181047 0.01349,-0.04048 0.07144,-0.05236 0.09052,-0.09052 0.01795,-0.03589 -0.01851,-0.253066 0,-0.271572 0.02134,-0.02134 0.06919,0.02134 0.09052,0 0.02134,-0.02134 0,-0.06035 0,-0.09052 0,-0.03017 0,-0.06035 0,-0.09052 0,-0.271571 0,-0.543143 0,-0.814715 0,-0.09052 -0.01775,-0.182805 0,-0.271571 0.01323,-0.06616 0.07416,-0.11559 0.09052,-0.181048 0.01766,-0.07062 0,-0.437486 0,-0.543143 0,-0.03017 -0.0095,-0.0619 0,-0.09052 0.02134,-0.06401 0.06919,-0.117038 0.09052,-0.181048 0.01702,-0.05107 0,-0.212088 0,-0.271572 0,-0.211222 0,-0.422444 0,-0.633667 0,-0.271571 0,-0.543143 0,-0.814715 0,-0.120698 0,-0.241397 0,-0.362095 0,-0.06035 0.01184,-0.121871 0,-0.181048 0.02077,-0.181785 -0.141637,-0.294976 -0.181048,-0.452619 -0.02344,-0.09377 0,-0.258296 0,-0.362096 0,-0.211222 0,-0.422445 0,-0.633667 0,-0.09052 0,-0.181048 0,-0.271572 0,-0.03017 -0.03017,-0.09052 0,-0.09052 0.03017,0 0,0.06035 0,0.09052"
       style="fill:none;fill-rule:evenodd;stroke:#000000;stroke-width:1px;stroke-linecap:butt;stroke-linejoin:miter;stroke-opacity:1" />
    <path
       id="path6428"
       d="m 98.037365,82.467257 c 0.583627,-0.194542 0.408199,-0.0461 0.633667,-0.271571 0.03017,-0.03017 0.05236,-0.07144 0.09052,-0.09052 0.02699,-0.0135 0.06354,0.01349 0.09052,0 0.03817,-0.01908 0.05236,-0.07144 0.09052,-0.09052 0.02699,-0.0135 0.06035,0 0.09052,0 0.03017,-0.03017 0.05236,-0.07144 0.09052,-0.09052 0.02699,-0.0135 0.06919,0.02134 0.09052,0 0.02134,-0.02134 -0.02134,-0.06919 0,-0.09052 0.187297,-0.187297 -0.0073,0.286215 0.181048,-0.09052 0.06243,-0.124865 -0.10963,-0.08097 0.09052,-0.181048 0.160248,-0.08012 0.03093,0.134649 0.181048,-0.09052 0.03743,-0.05614 0.0531,-0.124907 0.09052,-0.181047 0.02367,-0.03551 0.06035,-0.06035 0.09052,-0.09052 0.03017,-0.03017 0.05236,-0.07144 0.09052,-0.09052 0.124862,-0.06243 0.08097,0.109629 0.181042,-0.09052 0.0135,-0.02699 -0.0213,-0.06919 0,-0.09052 0.0427,-0.04267 0.12707,0.02699 0.18105,0 0.2443,-0.12215 -0.003,-0.04058 0.0905,-0.181048 0.0473,-0.07101 0.1337,-0.110035 0.18104,-0.181047 0.0167,-0.02511 -0.01,-0.0619 0,-0.09052 0.0213,-0.06401 0.0531,-0.124908 0.0905,-0.181048 0.0237,-0.03551 0.077,-0.05004 0.0905,-0.09052 0.0191,-0.05725 -0.0191,-0.123795 0,-0.181048 0.0135,-0.04048 0.077,-0.05004 0.0905,-0.09052 0.0191,-0.05725 -0.0146,-0.1225 0,-0.181047 0.0164,-0.06546 0.0742,-0.11559 0.0905,-0.181048 0.0146,-0.05855 -0.0191,-0.123796 0,-0.181048 0.0135,-0.04048 0.077,-0.05004 0.0905,-0.09052 0.0453,-0.135786 -0.0453,-0.316833 0,-0.452619 0.0135,-0.04048 0.0714,-0.05236 0.0905,-0.09052 0.0362,-0.07242 -0.0362,-0.199153 0,-0.271572 0.0191,-0.03817 0.0714,-0.05236 0.0905,-0.09052 0.027,-0.05398 -0.027,-0.127069 0,-0.181047 0.0191,-0.03817 0.0669,-0.05502 0.0905,-0.09052 0.0374,-0.05614 0.0531,-0.124907 0.0905,-0.181048 0.0237,-0.03551 0.0668,-0.05502 0.0905,-0.09052 0.0551,-0.08269 0.0773,-0.219682 0.18105,-0.271572 0.027,-0.01349 0.0692,0.02134 0.0905,0 0.0213,-0.02134 -0.0135,-0.06353 0,-0.09052 0.009,-0.01733 0.34477,-0.353432 0.3621,-0.362096 0.027,-0.01349 0.0635,0.0135 0.0905,0 0.0763,-0.03817 0.11004,-0.133706 0.18105,-0.181048 0.0456,-0.199439 0.18623,-0.04785 0.27157,-0.09052 0.0382,-0.01908 0.0524,-0.07144 0.0905,-0.09052 0.054,-0.02699 0.12707,0.02699 0.18104,0 0.0382,-0.01908 0.0603,-0.06035 0.0905,-0.09052 0.0603,0 0.12379,0.01908 0.18105,0 0.0405,-0.01349 0.0523,-0.07144 0.0905,-0.09052 0.0199,-0.0099 0.53643,-0.0022 0.54314,0 0.0405,0.01349 0.0603,0.06035 0.0905,0.09052"
       style="fill:none;fill-rule:evenodd;stroke:#000000;stroke-width:1px;stroke-linecap:butt;stroke-linejoin:miter;stroke-opacity:1" />
    <path
       id="path6436"
       d="m 59.564715,94.325886 c 1.056112,0 2.112224,0 3.168336,0 0.271572,0 0.543143,0 0.814715,0 0.06035,0 0.125015,-0.02241 0.181048,0 0.101014,0.04041 0.174261,0.132392 0.271571,0.181048 0.02699,0.01349 0.06354,-0.0135 0.09052,0 0.03817,0.01908 0.05502,0.06685 0.09052,0.09052 0.05614,0.03743 0.120699,0.06035 0.181048,0.09052 0.06035,0.03017 0.117038,0.06919 0.181048,0.09052 0.02863,0.0095 0.0619,-0.0095 0.09052,0 0.06401,0.02134 0.11559,0.07416 0.181048,0.09052 0.05855,0.01464 0.122501,-0.01464 0.181048,0 0.06546,0.01637 0.11559,0.07416 0.181048,0.09052 0.117095,0.02927 0.245001,-0.02927 0.362095,0 0.06546,0.01636 0.117038,0.06919 0.181048,0.09052 0.05703,0.01901 0.474036,0 0.543143,0 0.07845,0 0.309658,0.01748 0.362096,0 0.06401,-0.02134 0.120698,-0.06035 0.181048,-0.09052 0.06035,-0.03017 0.124907,-0.0531 0.181047,-0.09052 0.03551,-0.02367 0.05236,-0.07144 0.09052,-0.09052 0.05398,-0.02699 0.12707,0.02699 0.181048,0 0.06915,-0.03457 0.210273,-0.251139 0.271572,-0.271571 0.05725,-0.01909 0.123795,0.01908 0.181047,0 0.08097,-0.02699 0.104712,-0.14288 0.181048,-0.181048 0.02699,-0.01349 0.06354,0.01349 0.09052,0 0.07634,-0.03817 0.104711,-0.14288 0.181048,-0.181048 0.02699,-0.01349 0.0619,0.0095 0.09052,0 0.06401,-0.02134 0.117037,-0.06919 0.181048,-0.09052 0.02863,-0.0095 0.06353,0.01349 0.09052,0 0.03817,-0.01908 0.05236,-0.07144 0.09052,-0.09052 0.02699,-0.01349 0.06354,0.01349 0.09052,0 0.03817,-0.01908 0.05236,-0.07144 0.09052,-0.09052 0.02699,-0.01349 0.06919,0.02134 0.09052,0 0.02134,-0.02134 -0.02134,-0.06919 0,-0.09052 0.02134,-0.02134 0.06035,0 0.09052,0 0.06035,0 0.12707,0.02699 0.181048,0 0.02699,-0.01349 -0.02134,-0.06919 0,-0.09052 0.02134,-0.02134 0.06353,0.01349 0.09052,0 0.03817,-0.01908 0.05236,-0.07144 0.09052,-0.09052 0.02699,-0.0135 0.06354,0.01349 0.09052,0 0.03817,-0.01908 0.05004,-0.07703 0.09052,-0.09052 0.05725,-0.01908 0.121871,0.01183 0.181048,0 0.161182,0.1818 0.271572,-0.150873 0.362095,-0.181048 0.08588,-0.02863 0.185694,0.02863 0.271572,0 0.06401,-0.02134 0.117038,-0.06919 0.181048,-0.09052 0.05893,-0.01964 0.55788,0 0.633667,0"
       style="fill:none;fill-rule:evenodd;stroke:#000000;stroke-width:1px;stroke-linecap:butt;stroke-linejoin:miter;stroke-opacity:1" />
    <path
       id="path6446"
       d="m 59.655239,93.782743 c 0.08409,-0.640101 -0.415123,0.12802 -0.543143,0 -0.04267,-0.04267 0.02699,-0.12707 0,-0.181048 -0.01909,-0.03817 -0.07144,-0.05236 -0.09052,-0.09052 -0.02699,-0.05398 0.02699,-0.12707 0,-0.181048 -0.01908,-0.03817 -0.07703,-0.05004 -0.09052,-0.09052 -0.01908,-0.05725 0,-0.120698 0,-0.181048 0,-0.120698 0.01984,-0.243039 0,-0.362095 -0.01109,-0.06655 -0.07729,-0.114886 -0.09052,-0.181048 -0.02959,-0.147943 0.03659,-0.306251 0,-0.452619 -0.01637,-0.06546 -0.07416,-0.11559 -0.09052,-0.181048 -0.02927,-0.117095 0.03817,-0.247591 0,-0.362096 -0.01349,-0.04048 -0.06685,-0.05502 -0.09052,-0.09052 -0.304873,-0.45731 -6.99e-4,-0.0021 -0.09052,-0.271572 -0.02134,-0.06401 -0.07416,-0.11559 -0.09052,-0.181048 -0.0178,-0.07121 0,-0.449005 0,-0.543143 0,-0.03017 0,-0.06035 0,-0.09052 0,-0.03017 0.02134,-0.06919 0,-0.09052 -0.02134,-0.02134 -0.06919,0.02134 -0.09052,0 -0.02134,-0.02134 0,-0.06035 0,-0.09052 0,-0.03017 0,-0.06035 0,-0.09052 0,-0.362095 0,-0.724191 0,-1.086286 0,-0.422445 0,-0.84489 0,-1.267335 0,-0.09677 -0.01961,-0.535636 0,-0.633667 0.01871,-0.09357 0.07484,-0.177449 0.09052,-0.271571 0.0248,-0.148821 -0.02959,-0.304677 0,-0.45262 0.01871,-0.09357 0.07181,-0.178004 0.09052,-0.271572 0.01184,-0.05918 -0.01464,-0.1225 0,-0.181047 -0.05456,-0.163843 0.146644,-0.168359 0.181048,-0.271572 0.01908,-0.05725 -0.01464,-0.1225 0,-0.181048 0.01637,-0.06546 0.07416,-0.11559 0.09052,-0.181047 0.01996,-0.07986 -0.02585,-0.284548 0,-0.362096 0.02134,-0.06401 0.06919,-0.117038 0.09052,-0.181048 0.01894,-0.05682 0,-0.28922 0,-0.362095 0,-0.271572 0,-0.543144 0,-0.814715 0,-0.105159 -0.02052,-0.370556 0,-0.45262 0.01636,-0.06546 0.07416,-0.115589 0.09052,-0.181047 0.02927,-0.117095 -0.02927,-0.245001 0,-0.362096 0.01636,-0.06546 0.07416,-0.11559 0.09052,-0.181048 0.01464,-0.05855 -0.01909,-0.123795 0,-0.181047 0.02699,-0.08097 0.142879,-0.104712 0.181047,-0.181048 0.01628,-0.03257 -5.25e-4,-0.449995 0,-0.45262 0.02647,-0.132324 0.138375,-0.234075 0.181048,-0.362095 0.01908,-0.05725 -0.02699,-0.12707 0,-0.181048 0.01908,-0.03817 0.06685,-0.05502 0.09052,-0.09052 0.07485,-0.112281 0.106194,-0.249814 0.181048,-0.362095 0.02367,-0.03551 0.07144,-0.05236 0.09052,-0.09052 0.02699,-0.05398 -0.04267,-0.138375 0,-0.181048 0.02134,-0.02134 0.06919,0.02134 0.09052,0 0.0058,-0.0058 0.169806,-0.345234 0.181047,-0.362096 0.04734,-0.07101 0.14288,-0.104711 0.181048,-0.181047 0.0135,-0.02699 0,-0.06035 0,-0.09052 0,-0.06035 -0.01464,-0.122501 0,-0.181048 -0.05456,-0.163843 0.146643,-0.168359 0.181048,-0.271572 0.01908,-0.05725 -0.02699,-0.127069 0,-0.181047 0.01349,-0.02699 0.06919,0.02134 0.09052,0 0.02134,-0.02134 -0.02134,-0.06919 0,-0.09052 0.02134,-0.02134 0.07703,0.02699 0.09052,0 0.02699,-0.05398 0,-0.120699 0,-0.181048 0.03017,-0.06035 0.0531,-0.124907 0.09052,-0.181048 0.02558,-0.03837 0.234118,-0.252844 0.271572,-0.271571 0.02699,-0.01349 0.06353,0.01349 0.09052,0 0.03817,-0.01908 0.06035,-0.06035 0.09052,-0.09052 0.05324,-0.05324 0.320176,-0.341136 0.362095,-0.362096 0.02699,-0.01349 0.06353,0.0135 0.09052,0 0.03817,-0.01908 0.05236,-0.07144 0.09052,-0.09052 0.05398,-0.02699 0.130834,0.03348 0.181048,0 0.07101,-0.04734 0.104711,-0.142879 0.181048,-0.181048 0.07242,-0.03621 0.199152,0.03621 0.271571,0 0.03817,-0.01908 0.05236,-0.07144 0.09052,-0.09052 0.02755,-0.01377 0.230804,0 0.271572,0 0.353627,0 0.0096,0.02699 0.362095,-0.09052 0.05725,-0.01908 0.12707,0.02699 0.181048,0 0.07634,-0.03817 0.100081,-0.154059 0.181048,-0.181048 0.05725,-0.01908 0.130834,0.03348 0.181048,0 0.330769,-0.220513 -0.09706,-0.132517 0.181048,-0.271572 0.02699,-0.01349 0.06035,0 0.09052,0 0.03017,-0.03017 0.05236,-0.07144 0.09052,-0.09052 0.02699,-0.01349 0.06542,0.01674 0.09052,0 0.234925,-0.156616 0.138004,-0.161744 0.271572,-0.362095 0.02947,-0.04421 0.317888,-0.332624 0.362095,-0.362096 0.05614,-0.03743 0.133338,-0.04281 0.181048,-0.09052 0.02134,-0.02134 -0.02134,-0.06919 0,-0.09052 0.02134,-0.02134 0.06354,0.01349 0.09052,0 0.30023,-0.30023 -0.08535,0.04267 0.181048,-0.09052 0.03817,-0.01908 0.05236,-0.07144 0.09052,-0.09052 0.02699,-0.0135 0.06354,0.01349 0.09052,0 0.03817,-0.01908 0.05236,-0.07144 0.09052,-0.09052 0.05398,-0.02699 0.123796,0.01908 0.181048,0 0.06401,-0.02134 0.11559,-0.07416 0.181048,-0.09052 0.08782,-0.02195 0.181048,0 0.271572,0 0.211222,0 0.422444,0 0.633667,0 0.09052,0 0.181048,0 0.271571,0 0.03017,0 0.06919,0.02134 0.09052,0 0.02134,-0.02134 0,-0.06035 0,-0.09052 0,-0.03017 0,-0.120698 0,-0.09052 0,0.06035 0,0.120699 0,0.181048 0,0.03017 -0.01349,0.06354 0,0.09052 0.01908,0.03817 0.07144,0.05236 0.09052,0.09052 0.01349,0.02699 -0.02134,0.06919 0,0.09052 0.02134,0.02134 0.06035,0 0.09052,0 0.09052,0 0.181048,0 0.271572,0 0.724191,0 1.448382,0 2.172573,0 0.241397,0 0.482794,0 0.724191,0 0.09052,0 0.190605,-0.04048 0.271572,0 0.02699,0.01349 -0.02699,0.07703 0,0.09052 0.05398,0.02699 0.120698,0 0.181047,0 0.09052,0 0.181048,0 0.271572,0 0.06035,0 0.1225,-0.01464 0.181048,0 0.06546,0.01636 0.114885,0.07729 0.181048,0.09052 0.08877,0.01775 0.181957,-0.0128 0.271571,0 0.787354,0.11248 -0.0078,0.09052 0.633667,0.09052 0.211223,0 0.422445,0 0.633668,0 0.03017,0 0.06919,-0.02134 0.09052,0 0.02134,0.02134 0.03017,0.09052 0,0.09052 -0.03017,0 0,-0.120698 0,-0.09052 0,0.06035 -0.01908,0.123796 0,0.181048 0.01349,0.04048 0.120699,0.06035 0.09052,0.09052 -0.03017,0.03017 -0.133197,-0.09052 -0.09052,-0.09052 0.124414,0 0.238444,0.07679 0.362096,0.09052 0.14995,0.01666 0.304676,-0.02959 0.452619,0 0.15934,0.03187 0.29585,0.138292 0.45262,0.181048 0.177077,0.04829 0.362559,0.05769 0.543143,0.09052 0.111336,0.02024 0.677965,0.129766 0.814715,0.181047 0.126353,0.04738 0.238062,0.127891 0.362096,0.181048 0.0877,0.03759 0.178004,0.07181 0.271571,0.09052 0.05918,0.01184 0.12707,-0.02699 0.181048,0 0.08908,0.04454 0.273017,0.317557 0.362096,0.362096 0.05398,0.02699 0.127069,-0.02699 0.181047,0 0.09731,0.04865 0.17711,0.127069 0.271572,0.181047 0.0086,0.0049 0.721299,0.36003 0.724191,0.362096 0.104174,0.07441 0.171605,0.191598 0.271572,0.271572 0.105374,0.0843 0.249814,0.106193 0.362095,0.181047 0.03551,0.02367 0.05236,0.07144 0.09052,0.09052 0.08535,0.04267 0.186225,0.04785 0.271572,0.09052 0.0832,0.0416 0.293407,0.339199 0.362095,0.362096 0.05725,0.01908 0.12707,-0.02699 0.181048,0 0.02699,0.01349 -0.01349,0.06353 0,0.09052 0.01908,0.03817 0.05236,0.07144 0.09052,0.09052 0.02699,0.01349 0.0619,-0.0095 0.09052,0 0.655702,0.218568 -0.142721,-0.0261 0.271571,0.181048 0.02699,0.0135 0.06354,-0.01349 0.09052,0 0.03817,0.01908 0.05236,0.07144 0.09052,0.09052 0.02699,0.0135 0.06354,-0.01349 0.09052,0 0.03817,0.01908 0.07144,0.05236 0.09052,0.09052 0.0165,0.03299 0,0.40046 0,0.452619 0,0.06035 -0.03621,0.132769 0,0.181048 0.06528,0.08704 0.186616,0.113083 0.271572,0.181048 0.133289,0.106631 0.241397,0.241397 0.362095,0.362095 0.03017,0.03017 0.06035,0.06035 0.09052,0.09052 0.03017,0.03017 0.07703,0.05004 0.09052,0.09052 0.01908,0.05725 -0.02699,0.12707 0,0.181048 0.01349,0.02699 0.06354,-0.01349 0.09052,0 0.03817,0.01908 0.06035,0.06035 0.09052,0.09052 0.03017,0.03017 0.07144,0.05236 0.09052,0.09052 0.01349,0.02699 -0.0135,0.06354 0,0.09052 0.03457,0.06915 0.251138,0.210273 0.271571,0.271571 0.01908,0.05725 -0.03348,0.130834 0,0.181048 0.01002,0.01502 0.3251,0.153301 0.362096,0.181048 0.06828,0.05121 0.110035,0.133706 0.181048,0.181048 0.02511,0.01674 0.06035,0 0.09052,0 0.06035,0.03017 0.133338,0.04281 0.181048,0.09052 0.02134,0.02134 -0.01349,0.06354 0,0.09052 0.01908,0.03817 0.07468,0.0509 0.09052,0.09052 0.23169,0.579225 -0.08273,0.157305 0.271572,0.724191 0.07996,0.12794 0.181047,0.241397 0.271571,0.362096 0.06035,0.150873 0.102133,0.310573 0.181048,0.452619 0.07327,0.131887 0.181048,0.241397 0.271572,0.362096 0.09052,0.120698 0.173384,0.247544 0.271571,0.362095 0.08331,0.0972 0.189616,0.173224 0.271572,0.271572 0.18628,0.223536 0.270861,0.496993 0.452619,0.724191 0.05332,0.06664 0.107864,0.137137 0.181048,0.181048 0.736062,0.441637 -0.09696,-0.185337 0.45262,0.181047 0.03551,0.02367 0.04912,0.08017 0.09052,0.09052 0.642061,0 0.05303,-0.06401 0.362095,0.09052 0.02699,0.01349 0.07703,-0.02699 0.09052,0 0.02699,0.05398 -0.02699,0.12707 0,0.181048 0.01349,0.02699 0.06919,-0.02134 0.09052,0 0.02134,0.02134 0,0.06035 0,0.09052 0.09052,0.120698 0.158028,0.262745 0.271571,0.362095 0.182413,0.159612 1.064722,0.577623 1.176811,0.633668 0.181048,0.09052 0.355203,0.196395 0.543143,0.271571 0.115515,0.04621 0.244067,0.05118 0.362096,0.09052 0.91655,0.305517 0.02606,0.04663 0.814715,0.362096 0.02802,0.01121 0.06919,-0.02134 0.09052,0 0.04771,0.04771 0.04281,0.133337 0.09052,0.181047 0.0029,0.0029 0.249617,0 0.271571,0 0.45262,0 0.905239,0 1.357858,0 0.211223,0 0.422445,0 0.633668,0 0.02151,0 0.341806,0.01014 0.362095,0 0.03817,-0.01908 0.05004,-0.07703 0.09052,-0.09052 0.05725,-0.01909 0.120699,0 0.181048,0 0.03017,0 0.06354,0.01349 0.09052,0 0.03817,-0.01909 0.05236,-0.07144 0.09052,-0.09052 0.02699,-0.01349 0.0619,0.0095 0.09052,0 0.06401,-0.02134 0.11559,-0.07416 0.181048,-0.09052 0.05855,-0.01464 0.120699,0 0.181048,0 0.03017,0 0.06354,0.01349 0.09052,0 0.108628,-0.05431 0.162943,-0.217258 0.271571,-0.271572 0.02699,-0.01349 0.06035,0 0.09052,0 0.03017,-0.06035 0.04281,-0.133337 0.09052,-0.181048 0.02134,-0.02134 0.06354,0.0135 0.09052,0 0.103778,-0.05189 0.12592,-0.188879 0.181048,-0.271571 0.145696,-0.218544 0.03017,0.03017 0.271572,-0.09052 0.02699,-0.0135 -0.0135,-0.06354 0,-0.09052 0.01908,-0.03817 0.06035,-0.06035 0.09052,-0.09052 0,-0.06035 -0.02699,-0.12707 0,-0.181048 0.01349,-0.02699 0.0619,0.0095 0.09052,0 0.06401,-0.02134 0.133338,-0.04281 0.181048,-0.09052 0.02134,-0.02134 -0.01349,-0.06353 0,-0.09052 0.03817,-0.07634 0.149351,-0.101806 0.181048,-0.181048 0.04621,-0.115515 0.03488,-0.250817 0.09052,-0.362096 0.03817,-0.07634 0.127732,-0.114403 0.181047,-0.181048 0.06797,-0.08495 0.132393,-0.174261 0.181048,-0.271571 0.04267,-0.08535 0.04143,-0.189749 0.09052,-0.271572 0.04391,-0.07318 0.12984,-0.11277 0.181048,-0.181048 0.08097,-0.107956 0.106194,-0.249814 0.181048,-0.362095 0.04734,-0.07101 0.133706,-0.110035 0.181047,-0.181048 0.03743,-0.05614 0.0531,-0.124907 0.09052,-0.181048 0.02367,-0.03551 0.07703,-0.05004 0.09052,-0.09052 1.37e-4,-4.1e-4 -8.6e-5,-0.271485 0,-0.271571 0.110257,-0.110257 0.20225,-0.0424 0.271572,-0.181048 0.01349,-0.02699 -0.01349,-0.06354 0,-0.09052 0.01908,-0.03817 0.07144,-0.05236 0.09052,-0.09052 0.01349,-0.02699 -0.0095,-0.0619 0,-0.09052 0.02134,-0.06401 0.06919,-0.117037 0.09052,-0.181047 0.01908,-0.05725 0,-0.120699 0,-0.181048 0,-0.211223 0,-0.422445 0,-0.633667 0,-0.150873 0,-0.301747 0,-0.45262 0,-0.03017 0,-0.06035 0,-0.09052 0,-0.03017 0.01349,-0.06353 0,-0.09052 -0.108384,-0.216768 -0.181048,0.05705 -0.181048,-0.181048"
       style="fill:none;fill-rule:evenodd;stroke:#000000;stroke-width:1px;stroke-linecap:butt;stroke-linejoin:miter;stroke-opacity:1" />
    <path
       id="path6448"
       d="m 95.864792,81.83359 c -0.452619,0 -0.905239,0 -1.357858,0 -0.02095,0 -0.51081,0.01617 -0.543143,0 -0.03817,-0.01908 -0.05236,-0.07144 -0.09052,-0.09052 -0.02699,-0.01349 -0.06354,0.0135 -0.09052,0 -0.03817,-0.01908 -0.05004,-0.07703 -0.09052,-0.09052 -0.05725,-0.01908 -0.12707,0.02699 -0.181048,0 -0.02699,-0.01349 0.01349,-0.06354 0,-0.09052 -0.188369,-0.376738 0.0062,0.09677 -0.181048,-0.09052 -0.04267,-0.04267 0.02699,-0.127069 0,-0.181047 -0.01908,-0.03817 -0.07703,-0.05004 -0.09052,-0.09052 -0.01908,-0.05725 0.02699,-0.12707 0,-0.181048 -0.01349,-0.02699 -0.06353,0.0135 -0.09052,0 -0.200154,-0.100077 -0.02809,-0.05618 -0.09052,-0.181048 -0.03817,-0.07634 -0.14288,-0.104711 -0.181048,-0.181048 -0.0135,-0.02699 0.01349,-0.06353 0,-0.09052 -0.01908,-0.03817 -0.07703,-0.05004 -0.09052,-0.09052 -0.01908,-0.05725 0.01908,-0.123796 0,-0.181048 -0.01349,-0.04048 -0.07144,-0.05236 -0.09052,-0.09052 -0.01349,-0.02699 0.02134,-0.06919 0,-0.09052 -0.02134,-0.02134 -0.06919,0.02134 -0.09052,0 -0.02134,-0.02134 0.0135,-0.06354 0,-0.09052 -0.03817,-0.07634 -0.142879,-0.104711 -0.181047,-0.181047 -0.0135,-0.02699 0.01349,-0.06354 0,-0.09052 -0.01909,-0.03817 -0.06685,-0.05502 -0.09052,-0.09052 -0.03743,-0.05614 -0.05581,-0.123191 -0.09052,-0.181048 -0.05598,-0.09329 -0.132393,-0.174261 -0.181048,-0.271572 -0.167522,-0.335044 -0.02611,-0.31102 -0.181048,-0.724191 -0.0382,-0.101869 -0.140642,-0.170557 -0.181048,-0.271571 -0.02241,-0.05603 0.01464,-0.122501 0,-0.181048 -0.109283,-0.437135 -0.04302,0.0045 -0.181047,-0.271572 -0.01349,-0.02699 0.0095,-0.0619 0,-0.09052 -0.02134,-0.06401 -0.06919,-0.117037 -0.09052,-0.181047 -0.0095,-0.02863 0.02134,-0.06919 0,-0.09052 -0.01851,-0.01851 -0.23568,0.01795 -0.271572,0 -0.03817,-0.01908 -0.05236,-0.07144 -0.09052,-0.09052 -0.02699,-0.01349 -0.06919,0.02134 -0.09052,0 -0.02134,-0.02134 0.02134,-0.06919 0,-0.09052 -0.04267,-0.04267 -0.123795,0.01908 -0.181047,0 -0.06401,-0.02134 -0.117038,-0.06919 -0.181048,-0.09052 -0.06226,-0.02075 -0.218161,0.02671 -0.271572,0 -0.03817,-0.01908 -0.05235,-0.07144 -0.09052,-0.09052 -0.02699,-0.01349 -0.06354,0.01349 -0.09052,0 -0.03817,-0.01908 -0.05236,-0.07144 -0.09052,-0.09052 -0.0966,-0.0483 -0.08444,0.0483 -0.181048,0 -0.03817,-0.01908 -0.05004,-0.07703 -0.09052,-0.09052 -0.05725,-0.01908 -0.123796,0.01909 -0.181048,0 -0.04048,-0.01349 -0.05236,-0.07144 -0.09052,-0.09052 -0.02699,-0.01349 -0.06354,0.01349 -0.09052,0 -0.07634,-0.03817 -0.104711,-0.14288 -0.181047,-0.181048 -0.02699,-0.0135 -0.06919,0.02134 -0.09052,0 -0.120699,-0.120699 0.150873,-0.09052 -0.09052,-0.09052 -2.9e-5,-0.120727 -0.02374,-0.243794 -8.6e-5,-0.362182 0.03332,-0.166773 0.103389,-0.05169 0.181048,-0.09052 0.108628,-0.05431 0.162943,-0.217257 0.271571,-0.271571 0.02699,-0.0135 0.06354,0.01349 0.09052,0 0.03817,-0.01908 0.06035,-0.06035 0.09052,-0.09052 0,-0.03017 -0.02699,-0.07703 0,-0.09052 0.05219,-0.0261 0.489706,0.02672 0.543143,0 0.03817,-0.01908 0.05236,-0.07144 0.09052,-0.09052 0.05497,-0.02748 0.488175,0.02748 0.543144,0 0.03817,-0.01908 0.05235,-0.07144 0.09052,-0.09052 0.05398,-0.02699 0.12707,0.02699 0.181048,0 0.192481,-0.09624 -0.01143,-0.08481 0.181048,-0.181047 0.05398,-0.02699 0.12707,0.02699 0.181048,0 0.414292,-0.207147 -0.384131,0.03752 0.271571,-0.181048 0.05725,-0.01908 0.12707,0.02699 0.181048,0 0.07634,-0.03817 0.104711,-0.14288 0.181048,-0.181048 0.02699,-0.0135 0.06354,0.01349 0.09052,0 0.03817,-0.01908 0.05004,-0.07703 0.09052,-0.09052 0.08123,-0.05725 0.185693,0.02863 0.271571,0 0.06401,-0.02134 0.11559,-0.07416 0.181048,-0.09052 0.08782,-0.02196 0.181048,0 0.271572,0 0.211222,0 0.422445,0 0.633667,0 0.06296,0 0.419883,-0.01637 0.452619,0 0.03817,0.01908 0.05236,0.07144 0.09052,0.09052 0.02699,0.01349 0.06035,0 0.09052,0 0.06035,0 0.123796,-0.01908 0.181048,0 0.049,0.01633 0.2121,0.231924 0.271571,0.271572 0.395368,0.263578 -0.02984,-0.04012 0.362096,0.09052 0.04048,0.01349 0.06035,0.06035 0.09052,0.09052 0.06035,0.06035 0.12984,0.11277 0.181048,0.181047 0.06615,0.08821 0.0703,0.216196 0.181047,0.271572 0.124865,0.06243 0.08097,-0.109629 0.181048,0.09052 0.01349,0.02699 -0.02134,0.06919 0,0.09052 0.02134,0.02134 0.06919,-0.02134 0.09052,0 0.02134,0.02134 -0.02134,0.06919 0,0.09052 0.187297,0.187297 -0.0073,-0.286215 0.181048,0.09052 0.01349,0.02699 -0.02134,0.06919 0,0.09052 0.02134,0.02134 0.06919,-0.02134 0.09052,0 0.02134,0.02134 -0.02134,0.06919 0,0.09052 0.187297,0.187297 -0.0073,-0.286215 0.181048,0.09052 0.01349,0.02699 -0.02134,0.06919 0,0.09052 0.02134,0.02134 0.06919,-0.02134 0.09052,0 0.02134,0.02134 -0.0095,0.0619 0,0.09052 0.02134,0.06401 0.04281,0.133337 0.09052,0.181048 0.219865,0.219864 0.132928,-0.02692 0.271572,0.181047 0.03743,0.05614 0.0531,0.124908 0.09052,0.181048 0.04734,0.07101 0.120698,0.120699 0.181048,0.181048 5.9e-5,-0.701121 -0.09441,-0.444731 0.09058,-0.814696 0.03017,-0.06035 0.04281,-0.133337 0.09052,-0.181048 0.04771,-0.04771 0.133338,-0.04281 0.181048,-0.09052 0.04771,-0.04771 0.04281,-0.133337 0.09052,-0.181047 0.04771,-0.04771 0.124907,-0.0531 0.181048,-0.09052 0.03551,-0.02367 0.06035,-0.06035 0.09052,-0.09052 0.03017,-0.03017 0.06685,-0.05502 0.09052,-0.09052 0.03743,-0.05614 0.0531,-0.124907 0.09052,-0.181048 0.02367,-0.03551 0.06035,-0.06035 0.09052,-0.09052 0.03017,-0.03017 0.05236,-0.07144 0.09052,-0.09052 0.02699,-0.01349 0.06035,0 0.09052,0 0.09052,0 0.182806,0.01775 0.271572,0 0.132324,-0.02646 0.231179,-0.148318 0.362095,-0.181047 0.05855,-0.01464 0.122501,0.01464 0.181048,0 0.063,-0.01575 0.232135,-0.102174 0.271572,-0.181048 0.01349,-0.02699 -0.02699,-0.07703 0,-0.09052 0.05398,-0.02699 0.120698,0 0.181047,0 0.150874,0 0.301747,0 0.45262,0 0.211223,0 0.422443,0 0.633663,0 0.0603,0 0.1207,0 0.18105,0 0.0603,0 0.1225,-0.01464 0.18105,0 0.2224,0.0556 0.27213,0.217705 0.45262,0.362096 0.0527,0.04215 0.13334,0.04281 0.18105,0.09052 0.0477,0.04771 0.0365,0.140565 0.0905,0.181048 0.0763,0.05725 0.18623,0.04785 0.27157,0.09052 0.0382,0.01908 0.05,0.07703 0.0905,0.09052 0.39193,0.130645 -0.0333,-0.173054 0.36209,0.09052 0.0355,0.02367 0.055,0.06685 0.0905,0.09052 0.11228,0.07485 0.24981,0.106193 0.36209,0.181047 0.0355,0.02367 0.0603,0.06035 0.0905,0.09052 0.0603,0.03017 0.12491,0.0531 0.18105,0.09052 0.0355,0.02367 0.05,0.07703 0.0905,0.09052 0.0572,0.01908 0.13083,-0.03348 0.18104,0 0.0561,0.03743 0.0531,0.124907 0.0905,0.181048 0.0691,0.103675 0.16164,0.126082 0.27157,0.181048"
       style="fill:none;fill-rule:evenodd;stroke:#000000;stroke-width:1px;stroke-linecap:butt;stroke-linejoin:miter;stroke-opacity:1" />
    <ellipse
       ry="0.72419107"
       rx="0.76945299"
       cy="91.791214"
       cx="68.571838"
       id="path6450"
       style="color:#000000;clip-rule:nonzero;display:inline;overflow:visible;visibility:visible;opacity:1;isolation:auto;mix-blend-mode:normal;color-interpolation:sRGB;color-interpolation-filters:linearRGB;solid-color:#000000;solid-opacity:1;fill:#f2f2f2;fill-opacity:1;fill-rule:nonzero;stroke:#000000;stroke-width:1;stroke-linecap:butt;stroke-linejoin:miter;stroke-miterlimit:4;stroke-dasharray:none;stroke-dashoffset:0;stroke-opacity:1;color-rendering:auto;image-rendering:auto;shape-rendering:auto;text-rendering:auto;enable-background:accumulate" />
  </g>
  <path
     id="path6452"
     d="m 81.228755,80.415726 c 0.06401,0.234703 0.09846,0.479548 0.192031,0.70411 0.121166,0.290799 0.307183,0.550357 0.44807,0.832131 0.06547,0.130947 0.868518,1.849785 0.960151,2.048321 0.163104,0.353393 0.484083,1.021793 0.57609,1.408222 0.081,0.340177 0.06401,0.799619 0.06401,1.15218 0,0.03518 0.01277,0.448233 0,0.512081 -0.01323,0.06616 -0.04095,0.12862 -0.06401,0.19203 -0.0623,0.171325 -0.134381,0.339135 -0.19203,0.51208 -0.07044,0.211331 -0.118848,0.429703 -0.19203,0.640101 -0.09763,0.280691 -0.241856,0.545417 -0.32005,0.832131 -0.288782,1.058867 -0.254698,1.429148 -0.384061,2.496392 -0.03631,0.299553 -0.08725,0.597161 -0.12802,0.89614 -0.02324,0.170445 -0.02533,0.344464 -0.06401,0.512081 -0.02584,0.111959 -0.09169,0.211045 -0.12802,0.32005 -0.02782,0.08346 -0.03619,0.172581 -0.06401,0.25604 -0.07735,0.232055 -0.03037,0.04556 -0.12802,0.19203 -0.02647,0.0397 -0.03421,0.09077 -0.06401,0.128021 -0.05655,0.07069 -0.134078,0.122487 -0.19203,0.19203 -0.04925,0.0591 -0.07996,0.131957 -0.12802,0.19203 -0.0377,0.04713 -0.09181,0.07974 -0.128021,0.12802 -0.294708,0.392945 0.125264,-0.122508 -0.06401,0.25604 -0.0095,0.01908 -0.04493,-0.0095 -0.06401,0 -0.141529,0.07076 -0.01986,0.03973 -0.06401,0.12802 -0.02699,0.05398 -0.108936,0.07077 -0.12802,0.12802 -0.01349,0.04048 0,0.08535 0,0.12802 -0.04267,0.06401 -0.09945,0.120602 -0.12802,0.192031 -0.108156,0.270391 0.140007,-0.01598 -0.06401,0.25604 -0.03621,0.04828 -0.101031,0.07404 -0.12802,0.12802 -0.01908,0.03817 0.01035,0.08662 0,0.12802 0.03858,0.115854 -0.103693,0.119047 -0.12802,0.19203 -0.0135,0.04048 0.01908,0.08985 0,0.12802 -0.02699,0.05398 -0.101031,0.07404 -0.12802,0.12802 -0.01908,0.03817 0.01035,0.08662 0,0.12802 -0.04641,0.185645 -0.04994,0.07491 -0.12802,0.192031 -0.02646,0.0397 -0.04629,0.08372 -0.06401,0.12802 -0.02506,0.06265 -0.04765,0.126572 -0.06401,0.19203 -0.0052,0.0207 0.01184,0.04626 0,0.06401 -0.03348,0.05021 -0.09181,0.07974 -0.128021,0.12802 -0.02863,0.03817 -0.04892,0.08276 -0.06401,0.12802 -0.0067,0.02024 0.01509,0.04892 0,0.06401 -0.01509,0.01509 -0.04892,-0.01509 -0.06401,0 -0.01509,0.01509 0.0067,0.04377 0,0.06401 -0.01509,0.04526 -0.03755,0.08832 -0.06401,0.12802 -0.02134,0.02134 -0.04267,0.04267 -0.06401,0.06401 -0.02134,0 -0.04892,-0.01509 -0.06401,0 -0.01509,0.01509 0.01509,0.04892 0,0.06401 -0.04267,0.04267 -0.08535,-0.04267 -0.12802,0 -0.08535,0.08535 0.106683,0.06401 -0.06401,0.06401"
     style="fill:none;fill-rule:evenodd;stroke:#000000;stroke-width:1px;stroke-linecap:butt;stroke-linejoin:miter;stroke-opacity:1" />
  <path
     id="path6454"
     d="m 79.884544,78.175374 c 0.320051,0 0.640101,0 0.960151,0 0.38406,0 0.768121,0 1.152181,0 0.04267,0 0.08535,0 0.12802,0 0.04267,0 0.09785,0.03017 0.12802,0 0.03017,-0.03017 -0.01349,-0.08754 0,-0.12802 0.0095,-0.02863 0.04267,-0.04267 0.06401,-0.06401 0,-0.04267 -0.01035,-0.08662 0,-0.12802 0.02314,-0.09257 0.09785,-0.165516 0.12802,-0.25604 0.0192,-0.05761 -0.0192,-0.134421 0,-0.19203 0.0095,-0.02863 0.05052,-0.03702 0.06401,-0.06401 0.01426,-0.02852 -0.0046,-0.233217 0,-0.25604 0.01323,-0.06616 0.05292,-0.125475 0.06401,-0.19203 0.01754,-0.105232 0,-0.213367 0,-0.32005 0,-0.04267 0,-0.08535 0,-0.12802 0,-0.02134 0.0095,-0.04493 0,-0.06401 -0.01349,-0.02699 -0.04727,-0.0389 -0.06401,-0.06401 -0.03898,-0.05847 -0.05464,-0.155339 -0.12802,-0.192031 -0.01908,-0.0095 -0.04267,0 -0.06401,0 -0.02134,0 -0.04267,0 -0.06401,0 -0.149357,0 -0.298713,0 -0.44807,0 -0.08535,0 -0.172351,-0.01674 -0.25604,0 -0.08689,0.01738 -0.369327,0.132973 -0.448071,0.192031 -0.08918,0.06688 -0.175285,0.175285 -0.25604,0.25604 -0.02134,0.02134 -0.03702,0.05052 -0.06401,0.06401 -0.01908,0.0095 -0.04493,-0.0095 -0.06401,0 -0.05398,0.02699 -0.07781,0.09454 -0.12802,0.12802 -0.0397,0.02647 -0.08985,0.03538 -0.12802,0.06401 -0.0018,0.0013 -0.240615,0.225189 -0.25604,0.25604 -0.0095,0.01908 0.0095,0.04493 0,0.06401 -0.01349,0.02699 -0.05052,0.03702 -0.06401,0.06401 -0.01909,0.03817 0.01908,0.08985 0,0.12802 -0.0135,0.02699 -0.05052,0.03702 -0.06401,0.06401 -0.0095,0.01908 0.0067,0.04377 0,0.06401 -0.01509,0.04526 -0.04892,0.08276 -0.06401,0.12802 -0.0067,0.02024 0.0095,0.04493 0,0.06401 -0.01349,0.02699 -0.05052,0.03702 -0.06401,0.06401 -0.01626,0.03252 0.0084,0.150049 0,0.19203 -0.01725,0.08626 -0.04267,0.170693 -0.06401,0.25604 z"
     style="fill:none;fill-rule:evenodd;stroke:#000000;stroke-width:1px;stroke-linecap:butt;stroke-linejoin:miter;stroke-opacity:1" />
  <path
     id="path6456"
     d="m 76.748052,76.575123 c 0,-0.04267 -0.01349,-0.08754 0,-0.12802 0.01509,-0.04526 0.04892,-0.08276 0.06401,-0.128021 0.0067,-0.02024 -0.01509,-0.04892 0,-0.06401 0.01509,-0.01509 0.04892,0.01509 0.06401,0 0.03017,-0.03017 -0.03017,-0.09785 0,-0.12802 0.01509,-0.01509 0.04892,0.01509 0.06401,0 0.01509,-0.01509 -0.0095,-0.04493 0,-0.06401 0.01349,-0.02699 0.04267,-0.04267 0.06401,-0.06401 0.02134,-0.02134 0.0389,-0.04727 0.06401,-0.06401 0.0397,-0.02647 0.08832,-0.03755 0.12802,-0.06401 0.14647,-0.09765 -0.04002,-0.05067 0.19203,-0.12802 0.03611,-0.01204 0.14997,0 0.19203,0 0.06401,0 0.128021,0 0.192031,0 0.02134,0 0.04892,-0.01509 0.06401,0 0.01509,0.01509 -0.01509,0.04892 0,0.06401 0.01509,0.01509 0.04892,-0.01509 0.06401,0 0.0062,0.0062 -0.0071,0.2204 0,0.25604 0.1522,0.761001 -0.03107,-0.506457 0.12802,0.448071 0.007,0.04209 -0.01035,0.08662 0,0.12802 0.07727,0.309101 0.03042,-0.0032 0.12802,0.19203 0.0095,0.01908 -0.01509,0.04892 0,0.06401 0.04267,0.04267 0.08535,-0.04267 0.12802,0 0.13244,0.13242 -0.202385,-0.0052 0.06401,0.12802 0.01908,0.0095 0.04892,-0.01509 0.06401,0 0.03374,0.03374 0.04267,0.08535 0.06401,0.12802 0.02134,0.04267 0.05244,0.08173 0.06401,0.12802 0.01035,0.0414 -0.01349,0.08754 0,0.12802 0.0095,0.02863 0.04267,0.04267 0.06401,0.06401 0.05,0.05 0.1368,0.155211 0.19203,0.192031 0.0397,0.02646 0.08832,0.03754 0.12802,0.06401 0.0734,0.04893 0.162021,0.21603 0.192031,0.25604 0.0181,0.02414 0.05052,0.03702 0.06401,0.06401 0.0095,0.01908 -0.0095,0.04493 0,0.06401 0.01349,0.02699 0.04267,0.04267 0.06401,0.06401 0.02134,0.02134 0.04045,0.04516 0.06401,0.06401 0.08331,0.06664 0.17069,0.12802 0.25604,0.19203 0,-0.51208 0,-1.024161 0,-1.536241 0,-0.06401 0,-0.12802 0,-0.19203 0,-0.04267 -0.01035,-0.08662 0,-0.12802 0.01157,-0.04629 0.05465,-0.08124 0.06401,-0.12802 0.01255,-0.06277 0,-0.128021 0,-0.192031 0,-0.149356 0,-0.298713 0,-0.44807 0,-0.426734 0,-0.853467 0,-1.280201 0,-1.130844 0,-2.261688 0,-3.392533"
     style="fill:none;fill-rule:evenodd;stroke:#000000;stroke-width:1px;stroke-linecap:butt;stroke-linejoin:miter;stroke-opacity:1" />
  <path
     id="path6458"
     d="m 79.564494,71.966399 c 0,-0.799812 0,-1.351933 0,-2.048322"
     style="fill:none;fill-rule:evenodd;stroke:#000000;stroke-width:1px;stroke-linecap:butt;stroke-linejoin:miter;stroke-opacity:1" />
  <ellipse
     ry="7.2971458"
     rx="4.992784"
     cy="63.069"
     cx="79.628502"
     id="path6462"
     style="color:#000000;clip-rule:nonzero;display:inline;overflow:visible;visibility:visible;opacity:1;isolation:auto;mix-blend-mode:normal;color-interpolation:sRGB;color-interpolation-filters:linearRGB;solid-color:#000000;solid-opacity:1;fill:#f2f2f2;fill-opacity:1;fill-rule:nonzero;stroke:#000000;stroke-width:1;stroke-linecap:butt;stroke-linejoin:miter;stroke-miterlimit:4;stroke-dasharray:none;stroke-dashoffset:0;stroke-opacity:1;color-rendering:auto;image-rendering:auto;shape-rendering:auto;text-rendering:auto;enable-background:accumulate" />
  <path
     id="path6464"
     d="m 78.988404,70.878228 c -0.891276,-0.107657 -0.273307,0.328683 -0.640101,0.51208 -0.03817,0.01908 -0.108936,-0.03817 -0.12802,0 -0.03817,0.07634 0.03817,0.179704 0,0.256041 -0.01908,0.03817 -0.09785,-0.03017 -0.12802,0 -0.03017,0.03017 0.03017,0.09784 0,0.12802 -0.03017,0.03017 -0.09785,-0.03017 -0.12802,0 -0.03017,0.03017 0.03017,0.09785 0,0.12802 -0.03017,0.03017 -0.09785,-0.03017 -0.12802,0 -0.170694,0.170693 0.213366,0.12802 -0.12802,0.12802"
     style="fill:none;fill-rule:evenodd;stroke:#000000;stroke-width:1px;stroke-linecap:butt;stroke-linejoin:miter;stroke-opacity:1" />
  <path
     id="path6466"
     d="m 78.604343,72.158429 c 0.853468,0 1.706935,0 2.560402,0 -0.369946,-0.16269 -0.523037,-0.515733 -0.89614,-0.640101 -0.04048,-0.01349 -0.108936,0.03817 -0.128021,0 -0.03817,-0.07634 0.0207,-0.173241 0,-0.25604 -0.05167,-0.206679 -0.125905,-0.253925 -0.25604,-0.38406"
     style="fill:#ff0000;fill-rule:evenodd;stroke:#000000;stroke-width:1px;stroke-linecap:butt;stroke-linejoin:miter;stroke-opacity:1" />
  <path
     id="path6468"
     d="m 78.795686,69.662059 c -1.135506,-0.367965 -2.003309,-1.22214 -2.749416,-2.706241 -0.58054,-1.154768 -0.779472,-2.148945 -0.779472,-3.895473 0,-1.846145 0.206922,-2.789332 0.903416,-4.117925 1.85088,-3.530638 5.277874,-3.41724 7.033441,0.232733 0.568103,1.181137 0.814222,2.355529 0.814222,3.885192 0,1.542945 -0.256619,2.765242 -0.821659,3.913634 -1.054978,2.144144 -2.796407,3.207903 -4.400532,2.68808 z"
     style="fill:#ff0000;fill-opacity:1;stroke:#fcffff;stroke-width:0.08961407;stroke-linejoin:miter;stroke-miterlimit:4;stroke-dasharray:none;stroke-opacity:1" />
  <path
     id="path6470"
     d="m 78.524472,101.32085 c -0.72539,-0.12029 -2.144589,-0.72886 -2.677757,-1.14825 -0.169537,-0.13336 -0.423352,-0.242465 -0.564032,-0.242465 -0.140681,0 -0.714257,-0.374537 -1.274615,-0.832305 -0.560357,-0.457768 -1.0899,-0.875434 -1.176761,-0.928146 -0.164596,-0.09989 -0.50608,-1.23877 -0.652305,-2.175497 -0.04666,-0.298878 -0.137424,-0.575921 -0.201708,-0.615651 -0.06429,-0.03973 -0.116881,-0.288438 -0.116881,-0.552686 0,-0.38036 0.07641,-0.536943 0.366792,-0.751631 0.472127,-0.349057 0.61186,-0.80113 0.247626,-0.80113 -0.176517,0 -0.234528,-0.06052 -0.184062,-0.19203 0.05294,-0.137952 -0.01318,-0.19203 -0.234789,-0.19203 -0.169663,0 -0.344081,0.05761 -0.387598,0.12802 -0.13922,0.225264 -0.44807,0.137021 -0.44807,-0.12802 0,-0.290298 -0.263579,-0.322388 -1.084577,-0.13204 -0.279667,0.06484 -0.523886,0.102492 -0.542709,0.08367 -0.01882,-0.01882 0.05851,-0.270291 0.171846,-0.558821 0.193415,-0.492385 0.191365,-0.554702 -0.03338,-1.014869 -0.597562,-1.223503 -2.479801,-0.802062 -2.479801,0.555236 0,0.638643 0.474362,1.098811 1.230346,1.193532 l 0.625945,0.07843 -0.76812,0.384141 c -0.422467,0.211278 -1.044346,0.546568 -1.381954,0.745091 -0.596239,0.350604 -0.636603,0.356552 -1.408221,0.207493 -0.436914,-0.0844 -0.984911,-0.264216 -1.217771,-0.399588 -0.364541,-0.211923 -0.680355,-0.24613 -2.272357,-0.24613 -1.695147,0 -1.848974,-0.01917 -1.848974,-0.230436 0,-0.28817 -0.240924,-0.537685 -0.519172,-0.537685 -0.167891,0 -0.228355,-0.17596 -0.291006,-0.846873 -0.0435,-0.465781 -0.152642,-0.935484 -0.242548,-1.043787 -0.118953,-0.143293 -0.163465,-0.810331 -0.163465,-2.449644 0,-1.851854 0.03987,-2.350013 0.224035,-2.799407 0.145478,-0.354987 0.225106,-0.893664 0.22709,-1.536241 0.0017,-0.544261 0.06256,-1.220002 0.13529,-1.501646 0.07273,-0.281644 0.189873,-0.741507 0.260318,-1.021918 0.07044,-0.280411 0.289381,-0.771983 0.486525,-1.092382 0.197144,-0.320399 0.481067,-0.859756 0.630941,-1.198572 0.149874,-0.338815 0.426752,-0.740183 0.615285,-0.89193 0.371554,-0.299057 1.373736,-0.710076 1.752271,-0.718648 0.293362,-0.0066 1.300743,-0.720105 1.546631,-1.095377 0.346146,-0.528286 1.596675,-0.907857 1.937241,-0.588008 0.06689,0.06282 1.072169,0.150861 2.233951,0.195643 2.554502,0.09847 3.438753,0.17656 3.776593,0.333531 0.140822,0.06543 0.832131,0.235615 1.536242,0.37819 1.492185,0.302152 3.182856,1.105686 4.557949,2.166283 0.183307,0.141383 0.485755,0.32653 0.672106,0.411437 0.195983,0.0893 0.338819,0.258496 0.338819,0.401357 0,0.135839 0.281683,0.563021 0.625962,0.949294 0.449607,0.504447 0.864387,1.220494 1.472231,2.54156 1.048697,2.279196 1.090447,2.762369 0.409921,4.743999 -0.298868,0.870275 -0.504178,1.81504 -0.65163,2.998578 -0.224179,1.799385 -0.38584,2.371642 -0.756923,2.679398 -0.121166,0.100488 -0.303718,0.344013 -0.40567,0.541167 l -0.185367,0.35846 -0.478297,-0.207658 c -0.944371,-0.410006 -1.329753,-0.622214 -1.530333,-0.84267 -0.116543,-0.128091 -0.387229,-0.224035 -0.632068,-0.224035 -0.340606,0 -0.428228,0.05157 -0.428228,0.252023 0,0.149131 -0.06533,0.226867 -0.160025,0.190408 -0.200492,-0.0772 -0.169302,3.308419 0.04133,4.486343 0.129029,0.721568 0.194977,0.824304 1.088175,1.695172 0.52295,0.50987 0.950821,0.98515 0.950821,1.05616 0,0.071 -0.0144,0.12238 -0.03201,0.11415 -0.0176,-0.008 -0.345697,-0.067 -0.729101,-0.13056 z"
     style="fill:#0000ff;fill-opacity:1;stroke:#fcffff;stroke-width:0.08961407;stroke-linejoin:miter;stroke-miterlimit:4;stroke-dasharray:none;stroke-opacity:1" />
  <path
     id="path6472"
     d="m 86.954917,97.097419 c -0.1695,-0.04742 -0.869871,-0.09197 -1.556379,-0.09899 -0.686507,-0.007 -1.248196,-0.06112 -1.248196,-0.120231 0,-0.138597 -0.582826,-0.40461 -0.886489,-0.40461 -0.128887,0 -0.305066,-0.08522 -0.391507,-0.189374 -0.183786,-0.221448 -0.864425,-0.578747 -1.102489,-0.578747 -0.323296,0 -0.312002,-0.25455 0.03529,-0.795363 0.763071,-1.18828 0.841034,-1.425787 1.080451,-3.291508 0.171337,-1.335186 0.361718,-2.197767 0.68688,-3.112124 0.28316,-0.79625 0.449844,-1.499435 0.449844,-1.897749 0,-0.688298 0.09371,-0.768305 0.445113,-0.380012 0.125815,0.139025 0.350778,0.289309 0.499917,0.333965 0.149139,0.04466 0.472793,0.269692 0.719232,0.50008 0.530545,0.49599 1.437855,1.01 2.423906,1.373193 0.391922,0.144357 0.793452,0.326816 0.892287,0.405465 0.274692,0.218587 3.019194,0.182915 3.77242,-0.04903 0.777503,-0.239424 1.787157,-1.192085 2.38607,-2.25138 0.235428,-0.416401 0.648829,-1.085933 0.91867,-1.48785 0.269839,-0.401916 0.546292,-0.877191 0.614339,-1.056166 0.156902,-0.412686 0.305324,-0.412486 0.493567,6.66e-4 0.185648,0.407453 0.190636,1.413059 0.01521,3.066459 -0.221521,2.087848 -0.971204,5.056794 -1.27688,5.056794 -0.05013,0 -0.367881,0.553881 -0.706104,1.230847 -0.672752,1.346538 -1.18435,1.930219 -2.193926,2.503046 -0.363934,0.206494 -0.731044,0.459001 -0.815801,0.561126 -0.118835,0.143188 -0.509436,0.186441 -1.706675,0.188989 -1.267837,0.0027 -1.707356,0.05607 -2.396569,0.291016 -0.521344,0.177721 -0.961814,0.254747 -1.152181,0.201486 z"
     style="fill:#0000ff;fill-opacity:1;stroke:#fcffff;stroke-width:0.08961407;stroke-linejoin:miter;stroke-miterlimit:4;stroke-dasharray:none;stroke-opacity:1" />
  <path
     id="path6474"
     d="m 96.696313,81.94331 c -0.08545,-0.224746 -0.217931,-0.32005 -0.444902,-0.32005 -0.201959,0 -0.323219,-0.07204 -0.323219,-0.19203 0,-0.15335 -0.190342,-0.19203 -0.944956,-0.19203 -0.926008,0 -0.951679,-0.0088 -1.280201,-0.439529 -0.184385,-0.241741 -0.335245,-0.474944 -0.335245,-0.51823 0,-0.04329 -0.201632,-0.393903 -0.448071,-0.779148 -0.246438,-0.385246 -0.449035,-0.800144 -0.450215,-0.921996 -0.0012,-0.121852 -0.159604,-0.533758 -0.352055,-0.915346 -0.323475,-0.641381 -0.407183,-0.714063 -1.108001,-0.962066 -0.41695,-0.147548 -0.779234,-0.3317 -0.805076,-0.409226 -0.02646,-0.07939 0.181304,-0.177461 0.475675,-0.224533 0.287463,-0.04597 0.822575,-0.230404 1.189136,-0.40986 0.979292,-0.479428 1.856922,-0.542854 2.54679,-0.184055 0.303638,0.157921 0.580873,0.331054 0.616078,0.38474 0.200735,0.306107 2.358343,2.562806 2.450274,2.562806 0.06057,0 0.110128,-0.391962 0.110128,-0.871027 0,-0.81715 0.02574,-0.895212 0.416066,-1.262009 0.750066,-0.704847 2.659601,-1.079098 3.056811,-0.599107 0.0966,0.116775 0.3936,0.310012 0.65993,0.429416 l 0.48423,0.217098 -0.49113,0.44371 c -0.7762,0.701255 -1.03121,1.151594 -1.29598,2.288667 -0.23055,0.990119 -0.29345,1.106187 -0.930501,1.716951 -0.869433,0.833562 -1.28492,1.092844 -1.751226,1.092844 -0.205089,0 -0.444606,0.08641 -0.53226,0.19203 -0.227851,0.274544 -0.372804,0.238306 -0.51208,-0.12802 z"
     style="fill:#0000ff;fill-opacity:1;stroke:#fcffff;stroke-width:0.08961407;stroke-linejoin:miter;stroke-miterlimit:4;stroke-dasharray:none;stroke-opacity:1" />
  <path
     id="path6476"
     d="m 96.706419,83.340863 c 0.0061,-0.149136 0.03648,-0.179471 0.07735,-0.07734 0.03698,0.09241 0.03243,0.202831 -0.01011,0.245371 -0.04254,0.04254 -0.0728,-0.03307 -0.06724,-0.168026 z"
     style="fill:#0000ff;fill-opacity:1;stroke:#fcffff;stroke-width:0.08961407;stroke-linejoin:miter;stroke-miterlimit:4;stroke-dasharray:none;stroke-opacity:1" />
  <path
     id="path6478"
     d="m 96.760323,83.543562 c -0.09335,-0.151048 0.02774,-0.384061 0.199585,-0.384061 0.06626,0 0.120465,0.115218 0.120465,0.25604 0,0.270006 -0.186254,0.344507 -0.32005,0.128021 z"
     style="fill:#0000ff;fill-opacity:1;stroke:#fcffff;stroke-width:0.08961407;stroke-linejoin:miter;stroke-miterlimit:4;stroke-dasharray:none;stroke-opacity:1" />
  <path
     id="path6484"
     d="m 69.401783,97.687234 c -0.04979,-0.01599 -0.579352,-0.07822 -1.17681,-0.138299 -0.597458,-0.06008 -1.21465,-0.165989 -1.371539,-0.235358 -0.156889,-0.06937 -0.462407,-0.126361 -0.678929,-0.12665 -0.216522,-2.89e-4 -0.627907,-0.04102 -0.914189,-0.09052 -0.286282,-0.0495 -0.735664,-0.127152 -0.998628,-0.172561 -0.262963,-0.04541 -0.676388,-0.187984 -0.918721,-0.316834 -0.242334,-0.12885 -0.510346,-0.234272 -0.595584,-0.234272 -0.218689,0 -1.457013,-0.401165 -1.705992,-0.55267 -0.177834,-0.108213 -0.737258,-0.825658 -0.737258,-0.945512 0,-0.0224 0.71423,-0.04072 1.587178,-0.04072 1.52621,0 1.604861,0.009 2.047553,0.23329 0.575614,0.291686 1.479161,0.487281 2.260445,0.489329 0.618822,0.0016 0.996189,-0.125418 1.754092,-0.590515 0.199153,-0.122213 0.586142,-0.326664 0.859977,-0.454338 0.273835,-0.127673 0.568616,-0.270343 0.65507,-0.317045 0.08645,-0.0467 0.230149,-0.08491 0.319322,-0.08491 0.08917,0 0.242486,-0.0559 0.340693,-0.124219 0.09821,-0.06832 0.302712,-0.15122 0.454453,-0.18422 l 0.275895,-0.06 -0.03778,0.863887 c -0.0321,0.733882 -0.0089,0.931009 0.154094,1.309918 0.105533,0.245318 0.191878,0.541626 0.191878,0.658463 0,0.116838 0.05514,0.424988 0.122525,0.684779 l 0.122526,0.472347 -0.959872,-0.0071 c -0.527929,-0.0039 -1.000606,-0.02023 -1.050395,-0.03621 z"
     style="fill:#ffffff;fill-opacity:1;stroke:#fcffff;stroke-width:0.06336672;stroke-linejoin:miter;stroke-miterlimit:4;stroke-dasharray:none;stroke-opacity:1" />
  <path
     id="path6486"
     d="m 78.227862,96.327475 c 0,-0.622352 0.01928,-1.131549 0.04284,-1.131549 0.04185,0 0.487208,0.198075 1.322754,0.588297 l 0.415094,0.193859 -0.259635,0.536792 c -0.358154,0.74048 -0.597546,0.944149 -1.109745,0.944149 l -0.411308,0 0,-1.131548 z"
     style="fill:#ffffff;fill-opacity:1;stroke:#fcffff;stroke-width:0.06336672;stroke-linejoin:miter;stroke-miterlimit:4;stroke-dasharray:none;stroke-opacity:1" />
  <path
     id="path6488"
     d="m 80.581483,97.358194 c 0,-0.05546 0.08535,-0.252692 0.189669,-0.438301 l 0.18967,-0.337471 0.421367,0.144098 c 0.231751,0.07925 0.517998,0.231311 0.636104,0.337904 l 0.214737,0.193806 -0.468134,0.100397 c -0.603483,0.129424 -1.183413,0.129212 -1.183413,-4.33e-4 z"
     style="fill:#ffffff;fill-opacity:1;stroke:#fcffff;stroke-width:0.06336672;stroke-linejoin:miter;stroke-miterlimit:4;stroke-dasharray:none;stroke-opacity:1" />
  <path
     id="path6490"
     d="m 96.883186,83.836431 c 0,-0.354552 0,-0.709104 0,-1.063656 0,-0.07166 0,-0.143329 0,-0.214994 0,-0.01886 0,-0.03772 0,-0.05658 0,-0.01509 -0.0015,-0.03025 0,-0.04526 0.0023,-0.02283 0.0092,-0.04504 0.01132,-0.06789 0.0017,-0.01878 0,-0.03772 0,-0.05658 0,-0.03395 0,-0.06789 0,-0.101839 0,-0.01509 -0.0021,-0.03033 0,-0.04526 0.0017,-0.01181 0.0094,-0.02218 0.01132,-0.03395 0.0019,-0.01116 0,-0.02263 0,-0.03395 0,-0.03395 0,-0.06789 0,-0.101839"
     style="fill:none;fill-rule:evenodd;stroke:#000000;stroke-width:1px;stroke-linecap:butt;stroke-linejoin:miter;stroke-opacity:1" />
</svg>
